<?xml version="1.0" encoding="UTF-8"?>
<svg xmlns="http://www.w3.org/2000/svg" xmlns:xlink="http://www.w3.org/1999/xlink" width="100pt" height="100pt" viewBox="0 0 100 100" version="1.1">
<defs>
<filter id="alpha" filterUnits="objectBoundingBox" x="0%" y="0%" width="100%" height="100%">
  <feColorMatrix type="matrix" in="SourceGraphic" values="0 0 0 0 1 0 0 0 0 1 0 0 0 0 1 0 0 0 1 0"/>
</filter>
<mask id="mask0">
  <g filter="url(#alpha)">
<rect x="0" y="0" width="100" height="100" style="fill:rgb(0%,0%,0%);fill-opacity:0.0784314;stroke:none;"/>
  </g>
</mask>
<clipPath id="clip1">
  <rect x="0" y="0" width="100" height="100"/>
</clipPath>
<g id="surface5" clip-path="url(#clip1)">
<path style=" stroke:none;fill-rule:nonzero;fill:rgb(0%,0%,0%);fill-opacity:1;" d="M 68.09375 90.917969 L 57.867188 90.917969 C 55.910156 90.917969 54.324219 92.503906 54.324219 94.460938 C 54.324219 96.417969 55.910156 98.003906 57.867188 98.003906 L 61.148438 98.003906 C 64.878906 96.671875 67.890625 94.5 69.738281 91.324219 C 69.246094 91.066406 68.6875 90.917969 68.09375 90.917969 Z M 68.09375 90.917969 "/>
</g>
<mask id="mask1">
  <g filter="url(#alpha)">
<rect x="0" y="0" width="100" height="100" style="fill:rgb(0%,0%,0%);fill-opacity:0.0784314;stroke:none;"/>
  </g>
</mask>
<clipPath id="clip2">
  <rect x="0" y="0" width="100" height="100"/>
</clipPath>
<g id="surface8" clip-path="url(#clip2)">
<path style=" stroke:none;fill-rule:nonzero;fill:rgb(0%,0%,0%);fill-opacity:1;" d="M 42.132812 90.917969 L 31.90625 90.917969 C 31.3125 90.917969 30.753906 91.066406 30.261719 91.324219 C 32.109375 94.5 35.121094 96.671875 38.851562 98.003906 L 42.132812 98.003906 C 44.089844 98.003906 45.675781 96.417969 45.675781 94.460938 C 45.675781 92.507812 44.089844 90.917969 42.132812 90.917969 Z M 42.132812 90.917969 "/>
</g>
<mask id="mask2">
  <g filter="url(#alpha)">
<rect x="0" y="0" width="100" height="100" style="fill:rgb(0%,0%,0%);fill-opacity:0.0784314;stroke:none;"/>
  </g>
</mask>
<clipPath id="clip3">
  <rect x="0" y="0" width="100" height="100"/>
</clipPath>
<g id="surface11" clip-path="url(#clip3)">
<path style=" stroke:none;fill-rule:nonzero;fill:rgb(0%,0%,0%);fill-opacity:1;" d="M 50 58.84375 C 41.457031 58.84375 34.066406 63.765625 30.503906 70.929688 C 35.898438 73.558594 42.660156 74.726562 50 74.726562 C 57.339844 74.726562 64.101562 73.5625 69.496094 70.929688 C 65.933594 63.765625 58.542969 58.84375 50 58.84375 Z M 50 58.84375 "/>
</g>
<mask id="mask3">
  <g filter="url(#alpha)">
<rect x="0" y="0" width="100" height="100" style="fill:rgb(0%,0%,0%);fill-opacity:0.0784314;stroke:none;"/>
  </g>
</mask>
<clipPath id="clip4">
  <rect x="0" y="0" width="100" height="100"/>
</clipPath>
<g id="surface14" clip-path="url(#clip4)">
<path style=" stroke:none;fill-rule:nonzero;fill:rgb(0%,0%,0%);fill-opacity:1;" d="M 41.246094 17.667969 C 28.402344 19.359375 17.964844 28.675781 14.621094 40.921875 C 16.804688 41.738281 19.171875 42.183594 21.640625 42.183594 C 32.738281 42.183594 41.738281 33.1875 41.738281 22.089844 C 41.738281 20.570312 41.566406 19.089844 41.246094 17.667969 Z M 41.246094 17.667969 "/>
</g>
</defs>
<g id="surface1">
<path style=" stroke:none;fill-rule:nonzero;fill:rgb(92.941176%,73.72549%,72.54902%);fill-opacity:1;" d="M 68.09375 98.003906 L 57.867188 98.003906 C 55.910156 98.003906 54.324219 96.417969 54.324219 94.460938 C 54.324219 92.503906 55.910156 90.917969 57.867188 90.917969 L 68.09375 90.917969 C 70.050781 90.917969 71.636719 92.503906 71.636719 94.460938 C 71.636719 96.417969 70.050781 98.003906 68.09375 98.003906 Z M 68.09375 98.003906 "/>
<use xlink:href="#surface5" mask="url(#mask0)"/>
<path style=" stroke:none;fill-rule:nonzero;fill:rgb(92.941176%,73.72549%,72.54902%);fill-opacity:1;" d="M 42.132812 98.003906 L 31.90625 98.003906 C 29.949219 98.003906 28.363281 96.417969 28.363281 94.460938 C 28.363281 92.503906 29.949219 90.917969 31.90625 90.917969 L 42.132812 90.917969 C 44.089844 90.917969 45.675781 92.503906 45.675781 94.460938 C 45.675781 96.417969 44.089844 98.003906 42.132812 98.003906 Z M 42.132812 98.003906 "/>
<use xlink:href="#surface8" mask="url(#mask1)"/>
<path style=" stroke:none;fill-rule:nonzero;fill:rgb(90.980392%,90.980392%,90.980392%);fill-opacity:1;" d="M 71.765625 80.609375 C 71.765625 92.632812 62.019531 97.226562 50 97.226562 C 37.980469 97.226562 28.234375 92.632812 28.234375 80.609375 C 28.234375 68.589844 37.980469 58.84375 50 58.84375 C 62.019531 58.84375 71.765625 68.589844 71.765625 80.609375 Z M 71.765625 80.609375 "/>
<use xlink:href="#surface11" mask="url(#mask2)"/>
<path style=" stroke:none;fill-rule:nonzero;fill:rgb(90.980392%,90.980392%,90.980392%);fill-opacity:1;" d="M 41.734375 22.089844 C 41.734375 33.1875 32.738281 42.1875 21.640625 42.1875 C 10.542969 42.1875 1.546875 33.1875 1.546875 22.089844 C 1.546875 10.992188 10.542969 1.996094 21.640625 1.996094 C 32.738281 1.996094 41.734375 10.992188 41.734375 22.089844 Z M 41.734375 22.089844 "/>
<path style=" stroke:none;fill-rule:nonzero;fill:rgb(92.941176%,73.72549%,72.54902%);fill-opacity:1;" d="M 32.191406 22.089844 C 32.191406 27.917969 27.46875 32.640625 21.640625 32.640625 C 15.8125 32.640625 11.089844 27.917969 11.089844 22.089844 C 11.089844 16.265625 15.8125 11.539062 21.640625 11.539062 C 27.46875 11.539062 32.191406 16.265625 32.191406 22.089844 Z M 32.191406 22.089844 "/>
<use xlink:href="#surface14" mask="url(#mask3)"/>
<path style=" stroke:none;fill-rule:nonzero;fill:rgb(90.980392%,90.980392%,90.980392%);fill-opacity:1;" d="M 98.453125 22.089844 C 98.453125 33.1875 89.457031 42.1875 78.359375 42.1875 C 67.261719 42.1875 58.265625 33.1875 58.265625 22.089844 C 58.265625 10.992188 67.261719 1.996094 78.359375 1.996094 C 89.457031 1.996094 98.453125 10.992188 98.453125 22.089844 Z M 98.453125 22.089844 "/>
<path style=" stroke:none;fill-rule:nonzero;fill:rgb(92.941176%,73.72549%,72.54902%);fill-opacity:1;" d="M 88.910156 22.089844 C 88.910156 27.917969 84.1875 32.640625 78.359375 32.640625 C 72.53125 32.640625 67.808594 27.917969 67.808594 22.089844 C 67.808594 16.265625 72.53125 11.539062 78.359375 11.539062 C 84.1875 11.539062 88.910156 16.265625 88.910156 22.089844 Z M 88.910156 22.089844 "/>
<path style=" stroke:none;fill-rule:nonzero;fill:rgb(90.980392%,90.980392%,90.980392%);fill-opacity:1;" d="M 81.972656 46.304688 C 81.972656 63.964844 67.65625 70.710938 50 70.710938 C 32.34375 70.710938 18.027344 63.964844 18.027344 46.304688 C 18.027344 28.648438 32.34375 14.332031 50 14.332031 C 67.65625 14.332031 81.972656 28.648438 81.972656 46.304688 Z M 81.972656 46.304688 "/>
<path style=" stroke:none;fill-rule:nonzero;fill:rgb(92.941176%,73.72549%,72.54902%);fill-opacity:1;" d="M 55.722656 52.730469 C 55.722656 55.890625 53.160156 58.453125 50 58.453125 C 46.839844 58.453125 44.277344 55.890625 44.277344 52.730469 C 44.277344 49.570312 46.839844 47.011719 50 47.011719 C 53.160156 47.011719 55.722656 49.570312 55.722656 52.730469 Z M 55.722656 52.730469 "/>
<path style=" stroke:none;fill-rule:nonzero;fill:rgb(100%,100%,100%);fill-opacity:1;" d="M 42.214844 87.402344 C 41.363281 87.402344 40.507812 87.097656 39.828125 86.476562 C 37.046875 83.9375 35.71875 80.4375 35.664062 78.261719 C 35.617188 76.304688 37.160156 74.679688 39.117188 74.628906 C 41.0625 74.574219 42.691406 76.117188 42.75 78.066406 C 42.792969 78.546875 43.386719 80.128906 44.605469 81.246094 C 46.050781 82.5625 46.152344 84.804688 44.832031 86.25 C 44.132812 87.015625 43.175781 87.402344 42.214844 87.402344 Z M 42.214844 87.402344 "/>
<path style=" stroke:none;fill-rule:nonzero;fill:rgb(100%,100%,100%);fill-opacity:1;" d="M 57.785156 87.402344 C 56.824219 87.402344 55.867188 87.015625 55.167969 86.25 C 53.847656 84.804688 53.949219 82.5625 55.394531 81.246094 C 56.621094 80.125 57.210938 78.535156 57.25 78.058594 C 57.300781 76.101562 58.921875 74.566406 60.882812 74.617188 C 62.839844 74.667969 64.382812 76.304688 64.335938 78.261719 C 64.28125 80.4375 62.953125 83.9375 60.171875 86.476562 C 59.492188 87.097656 58.636719 87.402344 57.785156 87.402344 Z M 57.785156 87.402344 "/>
<path style=" stroke:none;fill-rule:nonzero;fill:rgb(0%,0%,0%);fill-opacity:1;" d="M 68.09375 51.1875 L 60.476562 51.1875 C 59.625 51.1875 58.929688 51.878906 58.929688 52.734375 C 58.929688 53.585938 59.625 54.277344 60.476562 54.277344 L 68.09375 54.277344 C 68.949219 54.277344 69.640625 53.585938 69.640625 52.734375 C 69.640625 51.878906 68.949219 51.1875 68.09375 51.1875 Z M 45.648438 80.101562 C 44.800781 79.328125 44.359375 78.222656 44.289062 77.917969 C 44.152344 75.167969 41.839844 73.003906 39.078125 73.082031 C 36.273438 73.15625 34.046875 75.496094 34.121094 78.300781 C 34.183594 80.878906 35.652344 84.757812 38.785156 87.617188 C 39.726562 88.476562 40.945312 88.949219 42.214844 88.949219 C 43.644531 88.949219 45.011719 88.347656 45.976562 87.292969 C 46.890625 86.289062 47.363281 84.988281 47.300781 83.628906 C 47.238281 82.273438 46.652344 81.019531 45.648438 80.101562 Z M 43.691406 85.207031 C 43.308594 85.625 42.785156 85.855469 42.214844 85.855469 C 41.71875 85.855469 41.238281 85.671875 40.871094 85.335938 C 38.53125 83.199219 37.261719 80.140625 37.210938 78.222656 C 37.183594 77.121094 38.054688 76.203125 39.160156 76.175781 C 39.179688 76.175781 39.195312 76.175781 39.214844 76.175781 C 40.285156 76.175781 41.171875 77.03125 41.203125 78.109375 C 41.203125 78.144531 41.207031 78.175781 41.210938 78.207031 C 41.296875 79.128906 42.082031 81.035156 43.5625 82.386719 C 43.957031 82.746094 44.1875 83.238281 44.210938 83.769531 C 44.234375 84.304688 44.050781 84.8125 43.691406 85.207031 Z M 78.359375 0.449219 C 69.53125 0.449219 61.667969 5.773438 58.347656 13.839844 C 55.679688 13.152344 52.882812 12.789062 50 12.789062 C 47.117188 12.789062 44.320312 13.152344 41.652344 13.839844 C 38.332031 5.773438 30.46875 0.449219 21.640625 0.449219 C 9.707031 0.449219 0 10.15625 0 22.089844 C 0 27.246094 1.84375 32.242188 5.191406 36.152344 C 8.179688 39.644531 12.203125 42.085938 16.632812 43.140625 C 16.535156 44.183594 16.480469 45.238281 16.480469 46.304688 C 16.480469 55.160156 19.863281 61.925781 26.527344 66.414062 C 27.632812 67.15625 28.832031 67.832031 30.117188 68.4375 C 27.867188 72.09375 26.6875 76.265625 26.6875 80.609375 C 26.6875 81.925781 26.800781 83.179688 27.019531 84.367188 C 22.582031 82.460938 18.636719 79.378906 15.730469 75.488281 C 12.140625 70.691406 10.242188 64.976562 10.242188 58.964844 L 10.242188 52.820312 C 10.242188 51.96875 9.550781 51.273438 8.699219 51.273438 C 7.84375 51.273438 7.152344 51.96875 7.152344 52.820312 L 7.152344 58.964844 C 7.152344 65.648438 9.261719 72.003906 13.253906 77.34375 C 16.988281 82.339844 22.265625 86.140625 28.152344 88.105469 C 28.464844 88.8125 28.824219 89.488281 29.234375 90.128906 C 27.777344 91.023438 26.816406 92.628906 26.816406 94.460938 C 26.816406 97.269531 29.097656 99.550781 31.90625 99.550781 L 42.132812 99.550781 C 43.242188 99.550781 44.320312 99.179688 45.199219 98.515625 C 46.71875 98.6875 48.316406 98.773438 50 98.773438 C 51.683594 98.773438 53.28125 98.6875 54.800781 98.515625 C 55.675781 99.179688 56.757812 99.550781 57.867188 99.550781 L 68.09375 99.550781 C 70.902344 99.550781 73.183594 97.269531 73.183594 94.460938 C 73.183594 92.628906 72.222656 91.023438 70.765625 90.128906 C 72.4375 87.5 73.3125 84.308594 73.3125 80.609375 C 73.3125 76.265625 72.132812 72.09375 69.882812 68.4375 C 71.167969 67.832031 72.367188 67.15625 73.472656 66.414062 C 80.136719 61.925781 83.519531 55.160156 83.519531 46.304688 C 83.519531 45.238281 83.464844 44.183594 83.367188 43.140625 C 87.796875 42.085938 91.820312 39.644531 94.808594 36.152344 C 98.15625 32.242188 100 27.246094 100 22.089844 C 100 10.15625 90.292969 0.449219 78.359375 0.449219 Z M 17.066406 40.066406 C 13.382812 39.128906 10.042969 37.0625 7.542969 34.140625 C 4.671875 30.789062 3.09375 26.507812 3.09375 22.089844 C 3.09375 11.863281 11.414062 3.539062 21.640625 3.539062 C 29.113281 3.539062 35.777344 7.988281 38.683594 14.753906 C 36.636719 15.492188 34.683594 16.421875 32.839844 17.523438 C 31.011719 13.058594 26.597656 9.992188 21.640625 9.992188 C 14.972656 9.992188 9.546875 15.417969 9.546875 22.089844 C 9.546875 27.800781 13.5 32.613281 18.875 33.867188 C 18.082031 35.847656 17.472656 37.921875 17.066406 40.066406 Z M 30.195312 19.28125 C 26.027344 22.34375 22.585938 26.347656 20.199219 30.976562 C 15.886719 30.285156 12.636719 26.554688 12.636719 22.089844 C 12.636719 17.125 16.675781 13.085938 21.640625 13.085938 C 25.546875 13.085938 29 15.640625 30.195312 19.28125 Z M 31.90625 96.460938 C 30.804688 96.460938 29.90625 95.5625 29.90625 94.460938 C 29.90625 93.609375 30.441406 92.882812 31.195312 92.601562 C 32.746094 94.179688 34.679688 95.472656 36.96875 96.460938 Z M 68.09375 96.460938 L 63.03125 96.460938 C 65.320312 95.472656 67.253906 94.179688 68.804688 92.601562 C 69.558594 92.882812 70.09375 93.609375 70.09375 94.460938 C 70.09375 95.5625 69.195312 96.460938 68.09375 96.460938 Z M 70.21875 80.609375 C 70.21875 93.722656 57.550781 95.679688 50 95.679688 C 42.449219 95.679688 29.78125 93.722656 29.78125 80.609375 C 29.78125 76.675781 30.898438 72.90625 33.019531 69.636719 C 37.820312 71.363281 43.5625 72.257812 50 72.257812 C 56.4375 72.257812 62.179688 71.363281 66.980469 69.636719 C 69.101562 72.90625 70.21875 76.675781 70.21875 80.609375 Z M 50 69.167969 C 38.636719 69.167969 19.574219 66.195312 19.574219 46.304688 C 19.574219 29.527344 33.222656 15.878906 50 15.878906 C 66.777344 15.878906 80.425781 29.527344 80.425781 46.304688 C 80.425781 66.195312 61.363281 69.167969 50 69.167969 Z M 69.804688 19.28125 C 71 15.640625 74.453125 13.085938 78.359375 13.085938 C 83.324219 13.085938 87.363281 17.125 87.363281 22.089844 C 87.363281 26.554688 84.113281 30.285156 79.800781 30.976562 C 77.414062 26.347656 73.972656 22.34375 69.804688 19.28125 Z M 92.457031 34.140625 C 89.957031 37.0625 86.617188 39.128906 82.933594 40.066406 C 82.527344 37.921875 81.917969 35.847656 81.125 33.867188 C 86.5 32.613281 90.453125 27.800781 90.453125 22.089844 C 90.453125 15.417969 85.027344 9.992188 78.359375 9.992188 C 73.402344 9.992188 68.988281 13.058594 67.160156 17.523438 C 65.316406 16.421875 63.363281 15.492188 61.316406 14.753906 C 64.222656 7.988281 70.890625 3.539062 78.359375 3.539062 C 88.585938 3.539062 96.90625 11.863281 96.90625 22.089844 C 96.90625 26.507812 95.328125 30.789062 92.457031 34.140625 Z M 60.921875 73.070312 C 59.558594 73.035156 58.265625 73.53125 57.28125 74.464844 C 56.324219 75.375 55.769531 76.597656 55.710938 77.917969 C 55.636719 78.222656 55.199219 79.328125 54.351562 80.101562 C 52.277344 81.992188 52.132812 85.21875 54.023438 87.292969 C 54.984375 88.34375 56.355469 88.949219 57.785156 88.949219 C 59.054688 88.949219 60.273438 88.476562 61.214844 87.617188 C 64.347656 84.757812 65.816406 80.875 65.878906 78.300781 C 65.914062 76.941406 65.417969 75.648438 64.484375 74.660156 C 63.546875 73.671875 62.28125 73.105469 60.921875 73.070312 Z M 59.128906 85.335938 C 58.761719 85.671875 58.28125 85.855469 57.785156 85.855469 C 57.214844 85.855469 56.691406 85.625 56.308594 85.207031 C 55.566406 84.394531 55.625 83.128906 56.4375 82.386719 C 57.917969 81.035156 58.71875 79.082031 58.792969 78.1875 C 58.796875 78.15625 58.796875 78.128906 58.796875 78.097656 C 58.8125 77.566406 59.03125 77.074219 59.414062 76.707031 C 59.785156 76.355469 60.269531 76.164062 60.789062 76.164062 C 60.804688 76.164062 60.824219 76.164062 60.84375 76.164062 C 61.375 76.175781 61.871094 76.398438 62.238281 76.785156 C 62.605469 77.175781 62.800781 77.6875 62.789062 78.222656 C 62.738281 80.140625 61.46875 83.199219 59.128906 85.335938 Z M 34.285156 45.871094 C 35.140625 45.871094 35.832031 45.179688 35.832031 44.324219 C 35.832031 43.671875 36.363281 43.136719 37.019531 43.136719 C 37.675781 43.136719 38.207031 43.671875 38.207031 44.324219 C 38.207031 45.179688 38.898438 45.871094 39.753906 45.871094 C 40.609375 45.871094 41.300781 45.179688 41.300781 44.324219 C 41.300781 41.964844 39.378906 40.046875 37.019531 40.046875 C 34.660156 40.046875 32.738281 41.964844 32.738281 44.324219 C 32.738281 45.179688 33.429688 45.871094 34.285156 45.871094 Z M 60.246094 45.871094 C 61.101562 45.871094 61.792969 45.179688 61.792969 44.324219 C 61.792969 43.671875 62.328125 43.136719 62.980469 43.136719 C 63.636719 43.136719 64.167969 43.671875 64.167969 44.324219 C 64.167969 45.179688 64.859375 45.871094 65.714844 45.871094 C 66.570312 45.871094 67.261719 45.179688 67.261719 44.324219 C 67.261719 41.964844 65.339844 40.046875 62.980469 40.046875 C 60.621094 40.046875 58.699219 41.964844 58.699219 44.324219 C 58.699219 45.179688 59.394531 45.871094 60.246094 45.871094 Z M 66.960938 60.566406 L 60.285156 56.355469 C 59.5625 55.898438 58.609375 56.113281 58.152344 56.835938 C 57.695312 57.558594 57.914062 58.515625 58.632812 58.96875 L 65.3125 63.179688 C 65.566406 63.34375 65.851562 63.421875 66.136719 63.421875 C 66.648438 63.421875 67.148438 63.164062 67.445312 62.699219 C 67.898438 61.976562 67.683594 61.019531 66.960938 60.566406 Z M 41.070312 52.734375 C 41.070312 51.878906 40.375 51.1875 39.523438 51.1875 L 31.90625 51.1875 C 31.050781 51.1875 30.359375 51.878906 30.359375 52.734375 C 30.359375 53.585938 31.050781 54.277344 31.90625 54.277344 L 39.523438 54.277344 C 40.375 54.277344 41.070312 53.585938 41.070312 52.734375 Z M 50 45.464844 C 45.992188 45.464844 42.730469 48.726562 42.730469 52.734375 C 42.730469 56.738281 45.992188 60 50 60 C 54.007812 60 57.269531 56.738281 57.269531 52.734375 C 57.269531 48.726562 54.007812 45.464844 50 45.464844 Z M 50 56.90625 C 47.699219 56.90625 45.824219 55.035156 45.824219 52.734375 C 45.824219 50.429688 47.699219 48.558594 50 48.558594 C 52.300781 48.558594 54.175781 50.429688 54.175781 52.734375 C 54.175781 55.035156 52.300781 56.90625 50 56.90625 Z M 39.714844 56.351562 L 33.039062 60.566406 C 32.316406 61.019531 32.101562 61.976562 32.554688 62.699219 C 32.847656 63.164062 33.351562 63.421875 33.867188 63.421875 C 34.148438 63.421875 34.433594 63.34375 34.6875 63.179688 L 41.367188 58.96875 C 42.085938 58.515625 42.304688 57.558594 41.847656 56.835938 C 41.394531 56.113281 40.4375 55.898438 39.714844 56.351562 Z M 39.714844 56.351562 "/>
</g>
</svg>
